<svg width="290" height="64" viewBox="0 0 290 64" fill="none" xmlns="http://www.w3.org/2000/svg">
<path fill-rule="evenodd" clip-rule="evenodd" d="M55.7091 44.6128L53.1309 50.4418C53.1309 50.4418 59.3434 54.4283 66.4699 54.1411C73.5966 53.8541 80.6474 50.8248 80.4814 43.8286C80.3154 36.8326 75.5394 35.7358 70.0569 34.3003C64.5744 32.8653 61.8616 32.3358 61.8741 30.0408C61.8866 27.7461 64.6549 26.2013 67.5909 26.2298C72.1889 26.2743 76.6704 29.3686 76.6704 29.3686L79.2484 23.4273C79.2484 23.4273 75.4394 20.2858 67.9271 20.0648C60.4149 19.8441 53.7831 24.1143 53.8036 30.6016C53.8241 37.0888 59.9489 39.4278 65.2369 40.4658C70.5254 41.5038 72.3769 42.7311 72.4111 44.6128C72.4446 46.4951 69.8056 47.9531 66.5819 47.8638C61.0549 47.7111 55.7091 44.6128 55.7091 44.6128" fill="#109E49"/>
<path fill-rule="evenodd" clip-rule="evenodd" d="M102.116 42.0336C101.977 46.2703 99.6248 48.0908 97.52 48.1991C95.415 48.3071 92.5395 47.4223 92.3635 42.2581C92.1878 37.0936 94.5898 35.6098 97.1838 35.5326C100.169 35.4433 102.254 37.7968 102.116 42.0336M101.667 32.8421L102.116 32.3938V30.1516H109.962V53.4671H102.116V50.6648L101.443 50.3286C101.443 50.3286 99.8093 53.8501 94.8295 53.6913C89.85 53.5326 83.983 50.1161 84.293 42.2581C84.6028 34.3998 88.6423 29.1976 94.4933 29.3673C100.344 29.5368 101.667 32.8421 101.667 32.8421" fill="#109E49"/>
<path fill-rule="evenodd" clip-rule="evenodd" d="M149.846 42.0336C149.708 46.2703 147.355 48.0908 145.251 48.1991C143.146 48.3071 140.27 47.4223 140.094 42.2581C139.918 37.0936 142.32 35.6098 144.914 35.5326C147.9 35.4433 149.984 37.7968 149.846 42.0336M149.398 32.8421L149.846 32.3938V30.1516H157.693V53.4671H149.846V50.6648L149.174 50.3286C149.174 50.3286 147.54 53.8501 142.56 53.6913C137.581 53.5326 131.714 50.1161 132.024 42.2581C132.334 34.3998 136.373 29.1976 142.224 29.3673C148.075 29.5368 149.398 32.8421 149.398 32.8421" fill="#109E49"/>
<path fill-rule="evenodd" clip-rule="evenodd" d="M128.681 30.0407V35.9817H123.861V53.468H115.902V28.4715C115.902 28.4715 116.29 19.2457 124.645 19.1677C129.079 19.1265 129.578 19.8405 129.578 19.8405V25.7815C129.578 25.7815 129.025 25.5437 127.336 25.5572C123.42 25.588 123.973 30.1525 123.973 30.1525L128.681 30.0407Z" fill="#109E49"/>
<path fill-rule="evenodd" clip-rule="evenodd" d="M162.645 30.0399C162.645 30.0399 162.943 31.9129 162.981 34.5239C163.079 41.2284 162.981 53.1309 162.981 53.1309H170.603V41.5854C170.603 41.5854 170.372 36.6761 175.76 36.3174C177.441 36.2056 180.019 37.3261 180.019 37.3261V29.9276C180.019 29.9276 179.01 29.2551 175.984 29.4794C173.264 29.6809 170.603 33.5151 170.603 33.5151H170.043V30.0399H162.645Z" fill="#109E49"/>
<path fill-rule="evenodd" clip-rule="evenodd" d="M183.045 53.356H191.115V30.041H183.045V53.356Z" fill="#109E49"/>
<path fill-rule="evenodd" clip-rule="evenodd" d="M182.82 18.3828V25.4448H191.003V18.4951L182.82 18.3828Z" fill="#109E49"/>
<path fill-rule="evenodd" clip-rule="evenodd" d="M215.215 37.4396L217.345 31.9463C217.345 31.9463 215.103 29.5928 208.041 29.4806C200.98 29.3686 195.375 33.8521 195.375 41.9231C195.375 49.9938 200.979 53.9283 208.377 53.8048C215.103 53.6926 217.345 51.1143 217.345 51.1143L215.215 45.9581C215.215 45.9581 211.628 48.3121 208.938 48.0881C206.248 47.8638 203.109 45.3981 203.445 41.5866C203.781 37.7756 206.023 35.3096 209.498 35.3096C212.973 35.3096 215.215 37.4396 215.215 37.4396" fill="#109E49"/>
<path fill-rule="evenodd" clip-rule="evenodd" d="M245.257 41.699C245.257 49.097 239.876 53.805 232.366 53.9172C224.856 54.029 219.781 49.8932 219.7 41.3625C219.618 32.7517 227.093 29.4805 231.805 29.4805C239.764 29.4805 245.257 34.3005 245.257 41.699M232.366 35.534C228.668 35.6395 227.434 38.5602 227.434 41.5867C227.434 44.613 228.727 48.1945 232.591 48.0882C236.431 47.9822 237.186 44.7252 237.298 41.8107C237.41 38.8967 236.289 35.4217 232.366 35.534" fill="#109E49"/>
<path fill-rule="evenodd" clip-rule="evenodd" d="M249.404 30.0401L249.628 32.2818L249.853 53.3551L257.587 53.2433L257.475 39.6803C257.475 39.6803 257.473 35.6046 261.622 35.4206C265.035 35.2696 264.537 40.9133 264.537 40.9133L264.649 53.4673H272.495L272.383 40.0168C272.383 40.0168 272.719 35.4206 276.53 35.4206C279.557 35.4206 279.445 38.5593 279.445 38.5593L279.557 53.4113L287.628 53.2991L287.74 38.1111C287.74 38.1111 288.081 29.7671 279.669 29.5918C274.288 29.4796 271.711 33.7393 271.711 33.7393C271.711 33.7393 270.702 29.8161 264.985 29.5918C259.269 29.3678 257.475 33.0666 257.475 33.0666L256.466 30.0401H249.404Z" fill="#109E49"/>
<path fill-rule="evenodd" clip-rule="evenodd" d="M48.5352 14.3478L48.9834 15.2445C48.9834 15.2445 77.4037 0.796541 87.7672 8.18279C95.7154 13.8475 84.2922 25.669 84.2922 25.669L85.1889 26.4535C85.1889 26.4535 105.527 8.43454 98.3037 2.24204C87.7779 -6.78171 48.5352 14.3478 48.5352 14.3478" fill="#D92730"/>
<path fill-rule="evenodd" clip-rule="evenodd" d="M43.3795 18.2719L42.9313 17.5996C42.9313 17.5996 -0.0222414 42.3489 8.64117e-06 57.2804C0.0105086 64.1076 9.42826 64.4151 20.9613 61.3151C33.7053 57.8899 47.415 51.0026 47.415 51.0026L47.0788 49.9944C47.0788 49.9944 23.6745 58.9621 17.8225 50.3301C14.692 45.7126 20.1273 36.8909 27.0143 30.3779C34.4873 23.3106 43.3795 18.2719 43.3795 18.2719" fill="#D92730"/>
</svg>
